PathFileType  4	(X/Y/Z) D:/Data/Berkelmans/SUB01/trc/slow_skatebelt
DataRate	CameraRate	NumFrames	NumMarkers	Units	OrigDataRate	OrigDataStartFrame	OrigNumFrames
100.0	100.0	11	31	m	100.0	1	800
Frame#	Time	LCAL			RCAL			C7			LSHO			RTIB2			RFEM2			LFEM2			RTIB3			RFEM1			LSIPS			RTIB1			LTIB2			RFEM3			RSHO			RKNEE_med			LKNEE_lat			RKNEE_lat			LMTP5			RMTP5			RSIAS			RSIPS			LSIAS			LKNEE_med			LANK_lat			LANK_med			RANK_lat			RANK_med			LTIB3			LTIB1			LFEM3			LFEM1			
		X1	Y1	Z1	X2	Y2	Z2	X3	Y3	Z3	X4	Y4	Z4	X5	Y5	Z5	X6	Y6	Z6	X7	Y7	Z7	X8	Y8	Z8	X9	Y9	Z9	X10	Y10	Z10	X11	Y11	Z11	X12	Y12	Z12	X13	Y13	Z13	X14	Y14	Z14	X15	Y15	Z15	X16	Y16	Z16	X17	Y17	Z17	X18	Y18	Z18	X19	Y19	Z19	X20	Y20	Z20	X21	Y21	Z21	X22	Y22	Z22	X23	Y23	Z23	X24	Y24	Z24	X25	Y25	Z25	X26	Y26	Z26	X27	Y27	Z27	X28	Y28	Z28	X29	Y29	Z29	X30	Y30	Z30	X31	Y31	Z31	

1	-2.9900000	-0.1894932	0.2125124	0.0083237	-0.1200888	0.0627849	0.0909000	-0.1864838	1.3868118	0.0341098	-0.1203313	1.4502974	-0.1087437	-0.0514808	0.3186024	0.1982998	-0.0407117	0.5781535	0.2229479	-0.0028631	0.6042659	-0.1169136	-0.1078016	0.3268208	0.1769763	-0.0895995	0.6734903	0.2386806	-0.1614236	1.0341502	0.0040583	-0.0696484	0.3849498	0.2041491	-0.0342439	0.4133718	-0.1178989	-0.0931440	0.5929980	0.2008641	-0.0821230	1.4044026	0.2514546	0.0026001	0.5154974	0.0892671	0.0967349	0.5044623	-0.1361237	0.0156802	0.4945869	0.1796821	-0.1076134	0.0924878	-0.0901491	0.0485529	0.0467772	0.1409209	0.0521551	0.9917111	0.1580606	-0.1510794	1.0304403	0.1207294	0.0212845	0.9869279	-0.0642421	0.1336288	0.5168381	-0.0419512	-0.1357793	0.2049273	-0.0637694	-0.0970299	0.1972319	0.0060988	-0.0546927	0.0994288	0.1358883	-0.0435273	0.1157079	0.0529974	-0.0493012	0.4431334	-0.0722820	-0.0056343	0.4758202	-0.1144646	-0.0312244	0.6028029	-0.0548065	-0.0770860	0.6729009	-0.0906447
2	-2.9800000	-0.1797457	0.2064461	0.0074101	-0.1256433	0.0629872	0.0908609	-0.1866248	1.3870679	0.0344916	-0.1210447	1.4505235	-0.1084322	-0.0569105	0.3186365	0.1985605	-0.0449480	0.5785185	0.2232327	-0.0004121	0.6053753	-0.1175112	-0.1130668	0.3271008	0.1770130	-0.0926407	0.6742995	0.2384641	-0.1622368	1.0348723	0.0040553	-0.0747335	0.3850002	0.2042793	-0.0279044	0.4116544	-0.1188883	-0.0968805	0.5938581	0.2009405	-0.0830041	1.4051425	0.2514845	-0.0018533	0.5152058	0.0896217	0.1005507	0.5066333	-0.1364175	0.0111868	0.4943029	0.1801423	-0.0922812	0.0896396	-0.0914320	0.0430601	0.0468252	0.1410627	0.0510575	0.9913144	0.1582336	-0.1514972	1.0308628	0.1205800	0.0202550	0.9869543	-0.0640533	0.1368475	0.5196552	-0.0424929	-0.1237974	0.2006853	-0.0642278	-0.0850414	0.1940213	0.0053711	-0.0603005	0.0994522	0.1358722	-0.0491313	0.1154516	0.0532085	-0.0443253	0.4414513	-0.0737158	-0.0013311	0.4749276	-0.1160435	-0.0295125	0.6032805	-0.0558701	-0.0755874	0.6733912	-0.0916688
3	-2.9700000	-0.1678104	0.1993706	0.0066027	-0.1312247	0.0628337	0.0909953	-0.1867747	1.3874398	0.0348290	-0.1217649	1.4507146	-0.1080973	-0.0622230	0.3187094	0.1986746	-0.0487941	0.5787796	0.2233695	0.0018808	0.6067378	-0.1182728	-0.1181577	0.3272276	0.1770172	-0.0958749	0.6749170	0.2383009	-0.1630114	1.0353600	0.0040215	-0.0797926	0.3851963	0.2043887	-0.0218805	0.4093296	-0.1196677	-0.1006763	0.5942891	0.2010612	-0.0840018	1.4061449	0.2514429	-0.0060993	0.5148324	0.0898280	0.1039604	0.5087411	-0.1362768	0.0068021	0.4940315	0.1804624	-0.0759919	0.0862769	-0.0931156	0.0372568	0.0467918	0.1411065	0.0480875	0.9920973	0.1572260	-0.1524229	1.0314839	0.1205905	0.0211975	0.9870758	-0.0639468	0.1399307	0.5224136	-0.0425520	-0.1114482	0.1957046	-0.0651713	-0.0726189	0.1901031	0.0045694	-0.0659250	0.0993905	0.1359588	-0.0546960	0.1155706	0.0531365	-0.0397024	0.4391244	-0.0749929	0.0022326	0.4735350	-0.1173309	-0.0281522	0.6040053	-0.0571670	-0.0743326	0.6737970	-0.0929538
4	-2.9600000	-0.1549706	0.1913351	0.0055417	-0.1369040	0.0628494	0.0910896	-0.1871820	1.3878356	0.0352426	-0.1221381	1.4507879	-0.1078566	-0.0673305	0.3187572	0.1987000	-0.0524144	0.5788596	0.2234649	0.0036975	0.6080524	-0.1191122	-0.1232983	0.3274880	0.1769236	-0.0988464	0.6753575	0.2383918	-0.1637592	1.0359272	0.0039739	-0.0847826	0.3853615	0.2042851	-0.0159132	0.4066370	-0.1203626	-0.1043090	0.5945999	0.2011197	-0.0849674	1.4070145	0.2513390	-0.0104250	0.5145629	0.0898506	0.1067228	0.5106662	-0.1357064	0.0022376	0.4938240	0.1805474	-0.0590567	0.0827043	-0.0950675	0.0318180	0.0468729	0.1412919	0.0487533	0.9912535	0.1585879	-0.1533411	1.0320333	0.1205890	0.0204010	0.9871095	-0.0641531	0.1421345	0.5248714	-0.0421445	-0.0985816	0.1901789	-0.0662691	-0.0594342	0.1857290	0.0033869	-0.0716071	0.0994391	0.1360535	-0.0600450	0.1156947	0.0531125	-0.0352125	0.4361273	-0.0761348	0.0057730	0.4719081	-0.1183705	-0.0272881	0.6045152	-0.0585926	-0.0732859	0.6743003	-0.0944661
5	-2.9500000	-0.1414228	0.1829625	0.0039052	-0.1426035	0.0629390	0.0909874	-0.1873896	1.3881049	0.0355692	-0.1224932	1.4507934	-0.1076436	-0.0726918	0.3188245	0.1986765	-0.0559118	0.5788783	0.2235231	0.0050980	0.6088759	-0.1200828	-0.1283602	0.3276757	0.1766538	-0.1018731	0.6757887	0.2385041	-0.1645438	1.0367929	0.0038069	-0.0896915	0.3854941	0.2041999	-0.0098790	0.4037646	-0.1210711	-0.1076857	0.5950276	0.2010342	-0.0859105	1.4078457	0.2512719	-0.0144340	0.5142172	0.0897745	0.1118677	0.5118338	-0.1362758	-0.0020394	0.4935761	0.1805234	-0.0412774	0.0788810	-0.0973166	0.0260879	0.0468274	0.1414084	0.0474517	0.9909207	0.1584938	-0.1540905	1.0325585	0.1205102	0.0195319	0.9873089	-0.0643183	0.1437809	0.5270286	-0.0415566	-0.0849813	0.1841174	-0.0676535	-0.0458307	0.1809219	0.0020805	-0.0772075	0.0994635	0.1359793	-0.0659726	0.1155898	0.0534789	-0.0308224	0.4324619	-0.0770904	0.0089867	0.4697467	-0.1190701	-0.0269044	0.6051558	-0.0600588	-0.0724592	0.6749532	-0.0962127
6	-2.9400000	-0.1253288	0.1734290	0.0031745	-0.1482066	0.0630884	0.0909512	-0.1873615	1.3884465	0.0357482	-0.1228028	1.4507927	-0.1074896	-0.0775629	0.3187972	0.1988035	-0.0593906	0.5789343	0.2234464	0.0059915	0.6101787	-0.1210153	-0.1334547	0.3284001	0.1750758	-0.1045872	0.6760861	0.2383800	-0.1651732	1.0373356	0.0035948	-0.0945948	0.3856267	0.2039717	-0.0039966	0.4006152	-0.1216216	-0.1099268	0.5954180	0.2019074	-0.0873115	1.4087519	0.2512123	-0.0183469	0.5137273	0.0895818	0.1137333	0.5133619	-0.1350314	-0.0061336	0.4933835	0.1803965	-0.0226526	0.0750608	-0.0999696	0.0203534	0.0467767	0.1414370	0.0464785	0.9906652	0.1584937	-0.1539076	1.0333624	0.1191256	0.0187248	0.9875064	-0.0644166	0.1444687	0.5289219	-0.0404871	-0.0711332	0.1776071	-0.0693943	-0.0318266	0.1756048	0.0005312	-0.0827518	0.0995508	0.1358554	-0.0697230	0.1164024	0.0543120	-0.0265793	0.4284233	-0.0779847	0.0123665	0.4672594	-0.1193646	-0.0270131	0.6056919	-0.0615976	-0.0720644	0.6754939	-0.0982393
7	-2.9300000	-0.1099799	0.1635573	0.0011588	-0.1539824	0.0629585	0.0910108	-0.1873990	1.3888440	0.0358703	-0.1231003	1.4507941	-0.1074007	-0.0825075	0.3188592	0.1985895	-0.0627023	0.5790579	0.2231947	0.0067604	0.6108003	-0.1218758	-0.1383004	0.3286105	0.1750950	-0.1072697	0.6764363	0.2382147	-0.1693300	1.0373975	0.0055757	-0.0992120	0.3857222	0.2038610	0.0017929	0.3971898	-0.1220343	-0.1133327	0.5956679	0.2016837	-0.0883432	1.4094924	0.2510162	-0.0223848	0.5134273	0.0894310	0.1151313	0.5148535	-0.1335665	-0.0103821	0.4930247	0.1800028	-0.0032248	0.0711207	-0.1030460	0.0147883	0.0467226	0.1415627	0.0452153	0.9902205	0.1583124	-0.1546042	1.0336260	0.1187291	0.0180841	0.9876347	-0.0645853	0.1447862	0.5304007	-0.0393182	-0.0583631	0.1704981	-0.0710848	-0.0181056	0.1700326	-0.0015153	-0.0884852	0.0995100	0.1358066	-0.0783328	0.1159035	0.0543198	-0.0226479	0.4240928	-0.0783919	0.0154270	0.4645035	-0.1192879	-0.0275030	0.6060631	-0.0632726	-0.0720360	0.6759022	-0.1003494
8	-2.9200000	-0.0951216	0.1536483	-0.0012019	-0.1596028	0.0629635	0.0911079	-0.1873773	1.3894022	0.0359284	-0.1232878	1.4507898	-0.1073375	-0.0873531	0.3189795	0.1985886	-0.0660813	0.5791387	0.2230407	0.0069951	0.6115472	-0.1227286	-0.1431476	0.3289081	0.1747991	-0.1100107	0.6768170	0.2378807	-0.1698815	1.0380583	0.0051385	-0.1037313	0.3859261	0.2036771	0.0071628	0.3936348	-0.1222471	-0.1165923	0.5959286	0.2015009	-0.0887995	1.4099889	0.2507173	-0.0263603	0.5130804	0.0892046	0.1159900	0.5157666	-0.1318478	-0.0143612	0.4927602	0.1798176	0.0163683	0.0674949	-0.1061083	0.0090591	0.0467092	0.1415762	0.0443466	0.9897743	0.1581625	-0.1553699	1.0339948	0.1184074	0.0173704	0.9878328	-0.0647760	0.1445011	0.5315509	-0.0376813	-0.0433349	0.1634294	-0.0731409	-0.0029070	0.1646536	-0.0035321	-0.0941636	0.0996386	0.1358319	-0.0845272	0.1157219	0.0537206	-0.0190363	0.4194282	-0.0786512	0.0183347	0.4615854	-0.1188996	-0.0283995	0.6062361	-0.0649999	-0.0722096	0.6763333	-0.1024660
9	-2.9100000	-0.0792263	0.1434052	-0.0038513	-0.1652041	0.0631368	0.0910141	-0.1874149	1.3897738	0.0358826	-0.1232776	1.4507704	-0.1073813	-0.0919899	0.3190495	0.1983407	-0.0695529	0.5791864	0.2225665	0.0073210	0.6119630	-0.1234462	-0.1477865	0.3290816	0.1747718	-0.1127690	0.6772223	0.2374372	-0.1704169	1.0385604	0.0046084	-0.1081336	0.3860194	0.2035440	0.0124401	0.3898420	-0.1221760	-0.1197794	0.5965223	0.2010423	-0.0895595	1.4104204	0.2503635	-0.0303983	0.5126500	0.0887752	0.1162552	0.5165547	-0.1298420	-0.0184140	0.4924681	0.1794322	0.0363686	0.0641953	-0.1095405	0.0033180	0.0465947	0.1415656	0.0435493	0.9894218	0.1580044	-0.1561692	1.0342658	0.1178591	0.0168338	0.9878359	-0.0649692	0.1433364	0.5321829	-0.0357236	-0.0315358	0.1560334	-0.0737815	0.0122953	0.1589710	-0.0056909	-0.0996077	0.0995954	0.1357307	-0.0907226	0.1151303	0.0534313	-0.0156819	0.4141196	-0.0785479	0.0205770	0.4579642	-0.1181715	-0.0297700	0.6062249	-0.0666853	-0.0727251	0.6767584	-0.1046420
10	-2.9000000	-0.0627995	0.1333329	-0.0068858	-0.1709120	0.0631161	0.0910989	-0.1873866	1.3901053	0.0357387	-0.1231148	1.4506984	-0.1075141	-0.0967722	0.3191246	0.1981034	-0.0728083	0.5793757	0.2221724	0.0072026	0.6122172	-0.1239376	-0.1526127	0.3295147	0.1746361	-0.1154133	0.6775166	0.2369136	-0.1709435	1.0390047	0.0039180	-0.1127515	0.3861839	0.2034119	0.0173789	0.3857313	-0.1219482	-0.1230474	0.5969120	0.2003001	-0.0909742	1.4105915	0.2501594	-0.0343157	0.5123745	0.0885438	0.1157549	0.5169278	-0.1274871	-0.0223942	0.4921955	0.1789415	0.0568940	0.0614383	-0.1129746	-0.0023879	0.0465984	0.1416472	0.0424541	0.9889527	0.1577453	-0.1568848	1.0346223	0.1172722	0.0164032	0.9878135	-0.0651101	0.1415912	0.5324395	-0.0336792	-0.0157032	0.1492589	-0.0764851	0.0281193	0.1533886	-0.0080907	-0.1052269	0.0996493	0.1357007	-0.0947425	0.1153119	0.0543308	-0.0126918	0.4084797	-0.0782325	0.0223005	0.4544212	-0.1173652	-0.0314883	0.6061013	-0.0684144	-0.0732952	0.6768380	-0.1070588
11	-2.8900000	-0.0457947	0.1237075	-0.0102474	-0.1765586	0.0632496	0.0910579	-0.1872587	1.3902832	0.0353770	-0.1228386	1.4506870	-0.1076610	-0.1016526	0.3192511	0.1981459	-0.0762201	0.5793885	0.2218492	0.0067510	0.6123745	-0.1243618	-0.1573252	0.3298528	0.1744904	-0.1180140	0.6779321	0.2364191	-0.1712783	1.0393325	0.0031874	-0.1173472	0.3863540	0.2032733	0.0221229	0.3816636	-0.1216323	-0.1262386	0.5973204	0.1996736	-0.0916215	1.4104592	0.2499165	-0.0381404	0.5120338	0.0883120	0.1151799	0.5168504	-0.1251950	-0.0264183	0.4918913	0.1786559	0.0778352	0.0589292	-0.1168407	-0.0079648	0.0465732	0.1416662	0.0416500	0.9884084	0.1576721	-0.1575718	1.0347727	0.1165371	0.0158596	0.9877994	-0.0653322	0.1398856	0.5321156	-0.0313757	0.0006044	0.1425208	-0.0793149	0.0457422	0.1480808	-0.0101299	-0.1109462	0.0997223	0.1356502	-0.1047559	0.1154624	0.0518722	-0.0097120	0.4023347	-0.0778399	0.0234328	0.4504115	-0.1162405	-0.0335238	0.6058160	-0.0700836	-0.0741840	0.6768460	-0.1093722
